<mxfile host="Electron" agent="Mozilla/5.0 (Windows NT 10.0; Win64; x64) AppleWebKit/537.36 (KHTML, like Gecko) draw.io/27.0.2 Chrome/134.0.6998.205 Electron/35.3.0 Safari/537.36" version="27.0.2">
  <diagram id="qMxwrovremqZ_A7BIrfU" name="Page-3">
    <mxGraphModel dx="1250" dy="913" grid="1" gridSize="10" guides="1" tooltips="1" connect="1" arrows="1" fold="1" page="1" pageScale="1" pageWidth="827" pageHeight="1169" math="0" shadow="0">
      <root>
        <mxCell id="0" />
        <mxCell id="1" parent="0" />
        <mxCell id="tes-_cm7jWGNDC9VSKWC-1" value="" style="html=1;shadow=0;dashed=0;shape=mxgraph.bootstrap.rect;fillColor=#222222;strokeColor=none;whiteSpace=wrap;rounded=0;fontSize=12;fontColor=#000000;align=center;" parent="1" vertex="1">
          <mxGeometry x="40" y="70" width="1150" height="40" as="geometry" />
        </mxCell>
        <mxCell id="tes-_cm7jWGNDC9VSKWC-2" value="MTGDeckStats" style="html=1;shadow=0;dashed=0;fillColor=none;strokeColor=none;shape=mxgraph.bootstrap.rect;fontColor=#999999;fontSize=14;whiteSpace=wrap;" parent="tes-_cm7jWGNDC9VSKWC-1" vertex="1">
          <mxGeometry width="115" height="40" as="geometry" />
        </mxCell>
        <mxCell id="tes-_cm7jWGNDC9VSKWC-3" value="Load" style="html=1;shadow=0;dashed=0;shape=mxgraph.bootstrap.rect;fillColor=#000000;strokeColor=none;fontColor=#ffffff;spacingRight=30;whiteSpace=wrap;" parent="tes-_cm7jWGNDC9VSKWC-1" vertex="1">
          <mxGeometry x="115" width="129.375" height="40" as="geometry" />
        </mxCell>
        <mxCell id="tes-_cm7jWGNDC9VSKWC-4" value="Profile" style="html=1;shadow=0;dashed=0;fillColor=none;strokeColor=none;shape=mxgraph.bootstrap.rect;fontColor=#999999;whiteSpace=wrap;" parent="tes-_cm7jWGNDC9VSKWC-1" vertex="1">
          <mxGeometry x="948.75" width="100.625" height="40" as="geometry" />
        </mxCell>
        <mxCell id="tes-_cm7jWGNDC9VSKWC-5" value="Log Out" style="html=1;shadow=0;dashed=0;fillColor=none;strokeColor=none;shape=mxgraph.bootstrap.rect;fontColor=#999999;whiteSpace=wrap;" parent="tes-_cm7jWGNDC9VSKWC-1" vertex="1">
          <mxGeometry x="1049.375" width="100.625" height="40" as="geometry" />
        </mxCell>
        <mxCell id="tes-_cm7jWGNDC9VSKWC-6" value="Create" style="html=1;shadow=0;dashed=0;shape=mxgraph.bootstrap.rect;fillColor=#000000;strokeColor=none;fontColor=#ffffff;spacingRight=30;whiteSpace=wrap;" parent="tes-_cm7jWGNDC9VSKWC-1" vertex="1">
          <mxGeometry x="244.38" width="129.375" height="40" as="geometry" />
        </mxCell>
        <mxCell id="tes-_cm7jWGNDC9VSKWC-7" value="About" style="html=1;shadow=0;dashed=0;shape=mxgraph.bootstrap.rect;fillColor=#000000;strokeColor=none;fontColor=#ffffff;spacingRight=30;whiteSpace=wrap;" parent="tes-_cm7jWGNDC9VSKWC-1" vertex="1">
          <mxGeometry x="503.14" width="129.375" height="40" as="geometry" />
        </mxCell>
        <mxCell id="7F9GTDTQDLlO-z_0g_ke-5" value="Decks" style="html=1;shadow=0;dashed=0;shape=mxgraph.bootstrap.rect;fillColor=#000000;strokeColor=none;fontColor=#ffffff;spacingRight=30;whiteSpace=wrap;" parent="tes-_cm7jWGNDC9VSKWC-1" vertex="1">
          <mxGeometry x="373.76" width="129.375" height="40" as="geometry" />
        </mxCell>
        <mxCell id="7F9GTDTQDLlO-z_0g_ke-1" value="" style="rounded=0;whiteSpace=wrap;html=1;" parent="1" vertex="1">
          <mxGeometry x="40" y="130" width="1150" height="580" as="geometry" />
        </mxCell>
        <mxCell id="7F9GTDTQDLlO-z_0g_ke-2" value="Card image" style="rounded=0;whiteSpace=wrap;html=1;" parent="1" vertex="1">
          <mxGeometry x="780" y="280" width="390" height="390" as="geometry" />
        </mxCell>
        <mxCell id="7F9GTDTQDLlO-z_0g_ke-3" value="Search" style="rounded=0;whiteSpace=wrap;html=1;" parent="1" vertex="1">
          <mxGeometry x="780" y="170" width="390" height="60" as="geometry" />
        </mxCell>
        <mxCell id="7F9GTDTQDLlO-z_0g_ke-4" value="Deck container" style="rounded=0;whiteSpace=wrap;html=1;" parent="1" vertex="1">
          <mxGeometry x="155" y="170" width="595" height="500" as="geometry" />
        </mxCell>
        <mxCell id="FZpAMuomBXZMg0s2uX9M-1" value="Quick stats" style="rounded=0;whiteSpace=wrap;html=1;" parent="1" vertex="1">
          <mxGeometry x="40" y="720" width="1150" height="60" as="geometry" />
        </mxCell>
        <mxCell id="FZpAMuomBXZMg0s2uX9M-2" value="" style="rounded=0;whiteSpace=wrap;html=1;" parent="1" vertex="1">
          <mxGeometry x="40" y="800" width="1150" height="350" as="geometry" />
        </mxCell>
        <mxCell id="FZpAMuomBXZMg0s2uX9M-4" value="Graph" style="rounded=0;whiteSpace=wrap;html=1;" parent="1" vertex="1">
          <mxGeometry x="660" y="820" width="510" height="310" as="geometry" />
        </mxCell>
        <mxCell id="FZpAMuomBXZMg0s2uX9M-5" value="Graph" style="rounded=0;whiteSpace=wrap;html=1;" parent="1" vertex="1">
          <mxGeometry x="60" y="820" width="510" height="310" as="geometry" />
        </mxCell>
      </root>
    </mxGraphModel>
  </diagram>
</mxfile>
